<svg width="124" height="39" viewBox="0 0 124 39" fill="none" xmlns="http://www.w3.org/2000/svg">
<path d="M28.7625 5.24063C33.6985 5.24063 37.4157 7.3125 37.4157 9.14062C37.4157 10.9688 33.6985 13.0406 28.7625 13.0406C23.8266 13.0406 20.1094 10.9688 20.1094 9.14062C20.1094 7.3125 23.8266 5.24063 28.7625 5.24063ZM28.7625 3.65625C23.0953 3.65625 18.525 6.09375 18.525 9.07969C18.525 12.0656 23.0953 14.5031 28.7625 14.5031C34.4297 14.5031 39 12.1266 39 9.14062C39 6.15469 34.4297 3.65625 28.7625 3.65625Z" fill="#20293B"/>
<path d="M28.7625 9.81093C29.4692 9.81093 30.0422 9.51082 30.0422 9.14062C30.0422 8.77042 29.4692 8.47031 28.7625 8.47031C28.0557 8.47031 27.4828 8.77042 27.4828 9.14062C27.4828 9.51082 28.0557 9.81093 28.7625 9.81093Z" fill="#20293B"/>
<path d="M28.7625 3.65625C26.3859 3.65625 24.1313 4.14375 22.425 4.875C22.6078 4.81406 22.7906 4.75312 22.9125 4.69219H1.58437C0.73125 4.69219 0 5.3625 0 6.27656V26.6906C0 27.5437 0.73125 28.275 1.58437 28.275H19.1344V30.1641C19.1344 32.9672 23.4 35.2828 28.7016 35.2828C34.0031 35.2828 38.2687 32.9672 38.2687 30.1641V11.0297C38.6953 10.4203 38.8781 9.81094 38.8781 9.14062C39 6.15469 34.4297 3.65625 28.7625 3.65625ZM22.0594 4.99687C21.9375 5.05781 21.8766 5.11875 21.7547 5.11875C21.8766 5.11875 21.9984 5.05781 22.0594 4.99687ZM20.1703 6.15469C20.0484 6.21563 19.9875 6.3375 19.8656 6.39844C19.9875 6.3375 20.0484 6.27656 20.1703 6.15469ZM15.9656 5.97188H18.525V8.53125H15.9656V5.97188ZM5.78906 26.9953H3.22969V24.4359H5.78906V26.9953ZM5.78906 8.47031H3.22969V5.97188H5.78906V8.47031ZM12.1875 26.9953H9.62813V24.4359H12.1875V26.9953ZM12.1875 8.47031H9.62813V5.97188H12.1875V8.47031ZM18.525 26.9953H15.9656V24.4359H18.525V26.9953ZM18.525 9.14062C18.525 8.95781 18.525 8.83594 18.5859 8.65312C18.5859 8.775 18.525 8.95781 18.525 9.14062ZM19.3172 7.06875C19.1953 7.19063 19.1344 7.3125 19.0125 7.49531C19.0734 7.37344 19.1953 7.19063 19.3172 7.06875ZM18.9516 7.55625C18.8906 7.67812 18.8297 7.8 18.7687 7.98281C18.8297 7.86094 18.8906 7.67812 18.9516 7.55625ZM36.7453 30.225C36.7453 31.6875 33.6984 33.7594 28.7625 33.7594C23.8266 33.7594 20.7188 31.6875 20.7188 30.225V12.5531C22.6078 13.8328 25.4719 14.625 28.7016 14.625C31.9312 14.625 34.8563 13.8328 36.6844 12.5531V30.225H36.7453ZM28.7625 13.0406C23.8266 13.0406 20.1094 10.9688 20.1094 9.14062C20.1094 7.3125 23.8266 5.24063 28.7625 5.24063C33.6984 5.24063 37.4156 7.3125 37.4156 9.14062C37.4156 10.9688 33.6984 13.0406 28.7625 13.0406Z" fill="#20293B"/>
<path d="M27.4828 16.8188V19.3781" stroke="#20293B" stroke-width="1.5" stroke-miterlimit="10" stroke-linejoin="round"/>
<path d="M30.0422 16.8188V23.1563" stroke="#20293B" stroke-width="1.5" stroke-miterlimit="10" stroke-linejoin="round"/>
<path d="M24.3141 12.9797V33.3938" stroke="#20293B" stroke-width="1.5" stroke-miterlimit="10" stroke-linejoin="round"/>
<path d="M44.0215 13.2031H45.665L49.8574 23.6357L54.041 13.2031H55.6934L50.4902 26H49.207L44.0215 13.2031ZM43.4854 13.2031H44.9355L45.1729 21.0078V26H43.4854V13.2031ZM54.7705 13.2031H56.2207V26H54.5332V21.0078L54.7705 13.2031ZM58.5234 21.3506V21.1484C58.5234 20.4629 58.623 19.8271 58.8223 19.2412C59.0215 18.6494 59.3086 18.1367 59.6836 17.7031C60.0586 17.2637 60.5127 16.9238 61.0459 16.6836C61.5791 16.4375 62.1768 16.3145 62.8389 16.3145C63.5068 16.3145 64.1074 16.4375 64.6406 16.6836C65.1797 16.9238 65.6367 17.2637 66.0117 17.7031C66.3926 18.1367 66.6826 18.6494 66.8818 19.2412C67.0811 19.8271 67.1807 20.4629 67.1807 21.1484V21.3506C67.1807 22.0361 67.0811 22.6719 66.8818 23.2578C66.6826 23.8438 66.3926 24.3564 66.0117 24.7959C65.6367 25.2295 65.1826 25.5693 64.6494 25.8154C64.1221 26.0557 63.5244 26.1758 62.8564 26.1758C62.1885 26.1758 61.5879 26.0557 61.0547 25.8154C60.5215 25.5693 60.0645 25.2295 59.6836 24.7959C59.3086 24.3564 59.0215 23.8438 58.8223 23.2578C58.623 22.6719 58.5234 22.0361 58.5234 21.3506ZM60.1494 21.1484V21.3506C60.1494 21.8252 60.2051 22.2734 60.3164 22.6953C60.4277 23.1113 60.5947 23.4805 60.8174 23.8027C61.0459 24.125 61.3301 24.3799 61.6699 24.5674C62.0098 24.749 62.4053 24.8398 62.8564 24.8398C63.3018 24.8398 63.6914 24.749 64.0254 24.5674C64.3652 24.3799 64.6465 24.125 64.8691 23.8027C65.0918 23.4805 65.2588 23.1113 65.3701 22.6953C65.4873 22.2734 65.5459 21.8252 65.5459 21.3506V21.1484C65.5459 20.6797 65.4873 20.2373 65.3701 19.8213C65.2588 19.3994 65.0889 19.0273 64.8604 18.7051C64.6377 18.377 64.3564 18.1191 64.0166 17.9316C63.6826 17.7441 63.29 17.6504 62.8389 17.6504C62.3936 17.6504 62.001 17.7441 61.6611 17.9316C61.3271 18.1191 61.0459 18.377 60.8174 18.7051C60.5947 19.0273 60.4277 19.3994 60.3164 19.8213C60.2051 20.2373 60.1494 20.6797 60.1494 21.1484ZM71.9707 24.5322L74.5723 16.4902H76.2334L72.8145 26H71.7246L71.9707 24.5322ZM69.7998 16.4902L72.4805 24.5762L72.665 26H71.5752L68.1299 16.4902H69.7998ZM79.5645 16.4902V26H77.9297V16.4902H79.5645ZM77.8066 13.9678C77.8066 13.7041 77.8857 13.4814 78.0439 13.2998C78.208 13.1182 78.4482 13.0273 78.7646 13.0273C79.0752 13.0273 79.3125 13.1182 79.4766 13.2998C79.6465 13.4814 79.7314 13.7041 79.7314 13.9678C79.7314 14.2197 79.6465 14.4365 79.4766 14.6182C79.3125 14.7939 79.0752 14.8818 78.7646 14.8818C78.4482 14.8818 78.208 14.7939 78.0439 14.6182C77.8857 14.4365 77.8066 14.2197 77.8066 13.9678ZM86.1211 26.1758C85.459 26.1758 84.8584 26.0645 84.3193 25.8418C83.7861 25.6133 83.3262 25.2939 82.9395 24.8838C82.5586 24.4736 82.2656 23.9873 82.0605 23.4248C81.8555 22.8623 81.7529 22.2471 81.7529 21.5791V21.21C81.7529 20.4365 81.8672 19.748 82.0957 19.1445C82.3242 18.5352 82.6348 18.0195 83.0273 17.5977C83.4199 17.1758 83.8652 16.8564 84.3633 16.6396C84.8613 16.4229 85.377 16.3145 85.9102 16.3145C86.5898 16.3145 87.1758 16.4316 87.668 16.666C88.166 16.9004 88.5732 17.2285 88.8896 17.6504C89.2061 18.0664 89.4404 18.5586 89.5928 19.127C89.7451 19.6895 89.8213 20.3047 89.8213 20.9727V21.7021H82.7197V20.375H88.1953V20.252C88.1719 19.8301 88.084 19.4199 87.9316 19.0215C87.7852 18.623 87.5508 18.2949 87.2285 18.0371C86.9062 17.7793 86.4668 17.6504 85.9102 17.6504C85.541 17.6504 85.2012 17.7295 84.8906 17.8877C84.5801 18.04 84.3135 18.2686 84.0908 18.5732C83.8682 18.8779 83.6953 19.25 83.5723 19.6895C83.4492 20.1289 83.3877 20.6357 83.3877 21.21V21.5791C83.3877 22.0303 83.4492 22.4551 83.5723 22.8535C83.7012 23.2461 83.8857 23.5918 84.126 23.8906C84.3721 24.1895 84.668 24.4238 85.0137 24.5938C85.3652 24.7637 85.7637 24.8486 86.209 24.8486C86.7832 24.8486 87.2695 24.7314 87.668 24.4971C88.0664 24.2627 88.415 23.9492 88.7139 23.5566L89.6982 24.3389C89.4932 24.6494 89.2324 24.9453 88.916 25.2266C88.5996 25.5078 88.21 25.7363 87.7471 25.9121C87.29 26.0879 86.748 26.1758 86.1211 26.1758ZM100.324 18.7051V20.085H93.3984V18.7051H100.324ZM93.6621 13.2031V26H91.9658V13.2031H93.6621ZM101.801 13.2031V26H100.113V13.2031H101.801ZM110.388 23.8027V16.4902H112.022V26H110.467L110.388 23.8027ZM110.695 21.7988L111.372 21.7812C111.372 22.4141 111.305 23 111.17 23.5391C111.041 24.0723 110.83 24.5352 110.537 24.9277C110.244 25.3203 109.86 25.6279 109.386 25.8506C108.911 26.0674 108.334 26.1758 107.654 26.1758C107.191 26.1758 106.767 26.1084 106.38 25.9736C105.999 25.8389 105.671 25.6309 105.396 25.3496C105.12 25.0684 104.906 24.7021 104.754 24.251C104.607 23.7998 104.534 23.2578 104.534 22.625V16.4902H106.16V22.6426C106.16 23.0703 106.207 23.4248 106.301 23.7061C106.4 23.9814 106.532 24.2012 106.696 24.3652C106.866 24.5234 107.054 24.6348 107.259 24.6992C107.47 24.7637 107.687 24.7959 107.909 24.7959C108.601 24.7959 109.148 24.6641 109.553 24.4004C109.957 24.1309 110.247 23.7705 110.423 23.3193C110.604 22.8623 110.695 22.3555 110.695 21.7988ZM114.492 12.5H116.127V24.1543L115.986 26H114.492V12.5ZM122.552 21.166V21.3506C122.552 22.042 122.47 22.6836 122.306 23.2754C122.142 23.8613 121.901 24.3711 121.585 24.8047C121.269 25.2383 120.882 25.5752 120.425 25.8154C119.968 26.0557 119.443 26.1758 118.852 26.1758C118.248 26.1758 117.718 26.0732 117.261 25.8682C116.81 25.6572 116.429 25.3555 116.118 24.9629C115.808 24.5703 115.559 24.0957 115.371 23.5391C115.189 22.9824 115.063 22.3555 114.993 21.6582V20.8496C115.063 20.1465 115.189 19.5166 115.371 18.96C115.559 18.4033 115.808 17.9287 116.118 17.5361C116.429 17.1377 116.81 16.8359 117.261 16.6309C117.712 16.4199 118.236 16.3145 118.834 16.3145C119.432 16.3145 119.962 16.4316 120.425 16.666C120.888 16.8945 121.274 17.2227 121.585 17.6504C121.901 18.0781 122.142 18.5908 122.306 19.1885C122.47 19.7803 122.552 20.4395 122.552 21.166ZM120.917 21.3506V21.166C120.917 20.6914 120.873 20.2461 120.785 19.8301C120.697 19.4082 120.557 19.0391 120.363 18.7227C120.17 18.4004 119.915 18.1484 119.599 17.9668C119.282 17.7793 118.893 17.6855 118.43 17.6855C118.02 17.6855 117.662 17.7559 117.357 17.8965C117.059 18.0371 116.804 18.2275 116.593 18.4678C116.382 18.7021 116.209 18.9717 116.074 19.2764C115.945 19.5752 115.849 19.8857 115.784 20.208V22.3262C115.878 22.7363 116.03 23.1318 116.241 23.5127C116.458 23.8877 116.745 24.1953 117.103 24.4355C117.466 24.6758 117.914 24.7959 118.447 24.7959C118.887 24.7959 119.262 24.708 119.572 24.5322C119.889 24.3506 120.144 24.1016 120.337 23.7852C120.536 23.4688 120.683 23.1025 120.776 22.6865C120.87 22.2705 120.917 21.8252 120.917 21.3506Z" fill="black"/>
</svg>
