<svg width="14" height="14" viewBox="0 0 14 14" fill="none" xmlns="http://www.w3.org/2000/svg">
<path d="M6.45982 1.53594C6.64648 1.0436 7.3529 1.0436 7.54015 1.53594L8.74765 4.88077C8.78978 4.98973 8.86395 5.08335 8.96039 5.14928C9.05683 5.2152 9.171 5.25033 9.28782 5.25002H12.2552C12.8036 5.25002 13.0427 5.93252 12.6117 6.26677L10.5 8.16669C10.4054 8.2394 10.3363 8.34021 10.3025 8.45465C10.2688 8.56909 10.2721 8.69128 10.3122 8.80369L11.0833 12.0721C11.2711 12.5971 10.6633 13.048 10.2037 12.7249L7.3354 10.9049C7.23717 10.8358 7.12004 10.7988 6.99998 10.7988C6.87993 10.7988 6.76279 10.8358 6.66457 10.9049L3.79632 12.7249C3.33723 13.048 2.72882 12.5965 2.91665 12.0721L3.68782 8.80369C3.72782 8.69128 3.73119 8.56909 3.69745 8.45465C3.6637 8.34021 3.59457 8.2394 3.49998 8.16669L1.38832 6.26677C0.95665 5.93252 1.19698 5.25002 1.74415 5.25002H4.71157C4.8284 5.25041 4.94261 5.21531 5.03906 5.14938C5.13552 5.08344 5.20968 4.98978 5.25173 4.88077L6.45923 1.53594H6.45982Z" fill="#FFD057" stroke="#FFD057" stroke-linecap="round" stroke-linejoin="round"/>
</svg>
